<svg xmlns="http://www.w3.org/2000/svg" width="22" height="22" viewBox="0 0 22 22">
	<path d="M12.414,11l6.293-6.293C18.888,4.526,19,4.276,19,4c0-0.552-0.448-1-1-1 c-0.276,0-0.526,0.112-0.707,0.293L11,9.586L4.707,3.293C4.526,3.112,4.276,3,4,3C3.448,3,3,3.448,3,4 c0,0.276,0.112,0.526,0.293,0.707L9.586,11l-6.293,6.293C3.112,17.474,3,17.724,3,18c0,0.552,0.448,1,1,1 c0.276,0,0.526-0.112,0.707-0.293L11,12.414l6.293,6.293C17.474,18.888,17.724,19,18,19c0.552,0,1-0.448,1-1 c0-0.276-0.112-0.526-0.293-0.707L12.414,11z"/>
</svg>